<svg version="1.1" xmlns="http://www.w3.org/2000/svg" xmlns:xlink="http://www.w3.org/1999/xlink" enable-background="new 0 0 1000 1000" xml:space="preserve" width="1000" height="1000"><rect id="backgroundrect" width="100%" height="100%" x="0" y="0" fill="none" stroke="none"/>
<metadata> Svg Vector Icons : http://www.onlinewebfonts.com/icon </metadata>

<g class="currentLayer" style=""><title>Layer 1</title><g id="svg_1" class="selected" fill="#ffffff" fill-opacity="1"><path d="M232.1,399.6L10,600.6L26,628l112.8-93L41.4,635.8l17.9,20.7l135.9-147.2l-130.8,155L167,591.8l-84.6,82.7l12.8,12.9l48.7-41.3l-35.9,54.3l12.8,15.5l128.2-173.1l-118,183.4l10.3,15.5l76.9-85.2l-64.1,93l115.4-129.2L167,762.3l10.3,7.7L267,661.6l-74.4,118.8l7.6,11.2l148.9-171.3L210.6,801.1l12.8,12.9l41-46.5l-28.2,62L331.1,721l-82.1,116.2l10.3,15.5l94.9-85.2l-82.1,95.6l7.7,12.9l151.6-134.5c10.7-10.6,18.2-17.4,20.2-17.9l-20.2,17.9c-43.7,43.3-141.4,150-141.4,150l15.4,15.5l130.8-118.8L323.5,919.9l12.8,10.3l159-170.5L351.7,943.2l12.8,18.1l223.7-218.4L232.1,399.6z M695.7,845.7c-59-43.6-92.7,94.3-145.6,97.3C691.4,1004.4,758.3,892,695.7,845.7z M981.5,47.3c0,0-170.9-31.7-211.1,26.9L597.2,320c0,0-47.4,107.9-156.2,18.9C363.1,229.4,315.7,294,315.7,294s-57.8,72.8-59.5,74.5l358.9,359c1.2-1.2,63.8-62.6,63.8-62.6C747,602.7,668,561.5,668,561.5c-80.5-83.3,31.9-161.8,31.9-161.8l253.8-158.4C1013.4,176,981.5,47.3,981.5,47.3z M881.7,168.1c-19.9,0-36-16.1-36-36.1c0-19.9,16.1-36.1,36-36.1c19.9,0,36,16.1,36,36.1C917.7,152,901.6,168.1,881.7,168.1z M900.3,811.2c-45.2-28.2-65.2,73.6-104.2,78.8C902.9,926.4,948.4,841.2,900.3,811.2z" id="svg_2" fill="#ffffff" fill-opacity="1"/></g></g></svg>