<svg version="1.1" xmlns="http://www.w3.org/2000/svg" xmlns:xlink="http://www.w3.org/1999/xlink" enable-background="new 0 0 1000 1000" xml:space="preserve" width="1000" height="1000"><rect id="backgroundrect" width="100%" height="100%" x="0" y="0" fill="none" stroke="none"/>
<metadata> Svg Vector Icons : http://www.onlinewebfonts.com/icon </metadata>

<g class="currentLayer" style=""><title>Layer 1</title><g id="svg_1" class="selected" fill="#ffffff" fill-opacity="1"><g transform="translate(0.000000,512.000000) scale(0.100000,-0.100000)" id="svg_2" fill="#ffffff" fill-opacity="1"><path d="M794.8,5004.5c-340.7-51.7-625.9-342.6-675.7-692.9C107.7,4242.7,100,2788,100,918c0-3495.1-1.9-3418.5,91.9-3600.3c99.5-193.3,279.5-348.4,476.6-409.6c122.5-38.3,172.3-38.3,2628-38.3h2503.6l13.4,149.3c28.7,331.1,118.7,660.4,248.8,924.5c99.5,195.2,281.4,453.6,428.8,608.7l135.9,141.7V399.3c0,1870,1.9,1837.5-112.9,2023.2c-30.6,47.9-486.2,606.8-1014.4,1240.3C4487,4876.3,4473.6,4889.7,4243.9,4977.7c-90,34.4-178,36.4-1722.7,38.3C1627.4,5017.9,850.3,5012.2,794.8,5004.5z M2148.1,2774.6v-622.1h-411.5H1325v622.1v622.1h411.5h411.5V2774.6z M3373.1,2774.6v-622.1h-411.5H2550v622.1v622.1h411.5h411.5V2774.6z" id="svg_3" fill="#ffffff" fill-opacity="1"/><path d="M7871.1-2134.9v-612.5h-612.5h-612.5v-402v-402h612.5h612.5v-612.5v-612.5h402h402v612.5v612.5h612.5H9900v402v402h-612.5H8675v612.5v612.5h-402h-402V-2134.9z" id="svg_4" fill="#ffffff" fill-opacity="1"/></g></g></g></svg>